<svg width="19" height="31" viewBox="0 0 19 31" fill="none" xmlns="http://www.w3.org/2000/svg">
<path d="M11.7286 22.7138L16.8082 14.5458C16.8248 14.5194 16.8387 14.4916 16.8496 14.4628C17.7267 13.0324 18.1899 11.3983 18.1899 9.73003C18.1899 4.72517 14.1181 0.653381 9.11333 0.653381C4.10852 0.653381 0.0364314 4.72517 0.0364314 9.73003C0.0364314 11.3987 0.500254 13.0334 1.3781 14.4649C1.38826 14.4899 1.40012 14.5143 1.41435 14.5381L6.31176 22.7341C2.51004 23.2715 0.010005 24.8348 0.010005 26.7311C0.010005 29.0807 4.00281 30.9207 9.09978 30.9207C14.1967 30.9207 18.1896 29.0803 18.1896 26.7311C18.1899 24.8259 15.5733 23.2278 11.7286 22.7138ZM2.29049 14.0071C1.48075 12.7183 1.05284 11.2394 1.05284 9.73003C1.05284 5.28556 4.66856 1.6698 9.11333 1.6698C13.5578 1.6698 17.1735 5.28556 17.1735 9.73003C17.1735 11.2401 16.7456 12.719 15.9362 14.0071C15.9192 14.0342 15.9053 14.0624 15.8942 14.0915L10.5275 22.7199C10.4469 22.8436 10.4309 22.8717 10.3323 23.0336L8.97713 25.2129L2.33589 14.0986C2.32404 14.0671 2.30879 14.0363 2.29049 14.0071ZM9.10012 29.9043C4.34229 29.9043 1.02676 28.2316 1.02676 26.7311C1.02676 25.369 3.52374 24.0856 6.88231 23.6882L8.53228 26.4498C8.62342 26.602 8.78672 26.6958 8.96392 26.6972C8.96527 26.6972 8.96697 26.6972 8.96832 26.6972C9.14382 26.6972 9.30713 26.6064 9.39996 26.4573L11.1346 23.6682C14.5467 24.0379 17.1731 25.3538 17.1731 26.7311C17.1735 28.232 13.8579 29.9043 9.10012 29.9043Z" fill="white"/>
<path d="M12.4004 9.73003C12.4004 7.91029 10.9198 6.4297 9.10012 6.4297C7.2804 6.4297 5.79983 7.91029 5.79983 9.73003C5.79983 11.5498 7.2804 13.0303 9.10012 13.0303C10.9198 13.0303 12.4004 11.5498 12.4004 9.73003ZM6.81624 9.73003C6.81624 8.47068 7.84078 7.44612 9.10012 7.44612C10.3595 7.44612 11.384 8.47068 11.384 9.73003C11.384 10.9894 10.3598 12.0139 9.10012 12.0139C7.84044 12.0139 6.81624 10.9894 6.81624 9.73003Z" fill="white"/>
</svg>
