<svg width="52" height="38" viewBox="0 0 52 38" fill="none" xmlns="http://www.w3.org/2000/svg">
<path d="M40 7.625H31.25V1.5C31.25 1.26794 31.1578 1.04538 30.9937 0.881282C30.8296 0.717187 30.6071 0.625 30.375 0.625H5.875C5.64294 0.625 5.42038 0.717187 5.25628 0.881282C5.09219 1.04538 5 1.26794 5 1.5C5 1.73206 5.09219 1.95462 5.25628 2.11872C5.42038 2.28281 5.64294 2.375 5.875 2.375H10.25V7.625H1.5C1.26794 7.625 1.04538 7.71719 0.881282 7.88128C0.717187 8.04538 0.625 8.26794 0.625 8.5V15.5C0.625 15.7321 0.717187 15.9546 0.881282 16.1187C1.04538 16.2828 1.26794 16.375 1.5 16.375H10.25V21.625H1.5C1.26794 21.625 1.04538 21.7172 0.881282 21.8813C0.717187 22.0454 0.625 22.2679 0.625 22.5V29.5C0.625 29.7321 0.717187 29.9546 0.881282 30.1187C1.04538 30.2828 1.26794 30.375 1.5 30.375H10.25V35.625H5.77C5.53794 35.625 5.31538 35.7172 5.15128 35.8813C4.98719 36.0454 4.895 36.2679 4.895 36.5C4.895 36.7321 4.98719 36.9546 5.15128 37.1187C5.31538 37.2828 5.53794 37.375 5.77 37.375H30.375C30.6071 37.375 30.8296 37.2828 30.9937 37.1187C31.1578 36.9546 31.25 36.7321 31.25 36.5V30.375H40C40.2321 30.375 40.4546 30.2828 40.6187 30.1187C40.7828 29.9546 40.875 29.7321 40.875 29.5V22.5C40.875 22.2679 40.7828 22.0454 40.6187 21.8813C40.4546 21.7172 40.2321 21.625 40 21.625H31.25V16.375H40C40.2321 16.375 40.4546 16.2828 40.6187 16.1187C40.7828 15.9546 40.875 15.7321 40.875 15.5V8.5C40.875 8.26794 40.7828 8.04538 40.6187 7.88128C40.4546 7.71719 40.2321 7.625 40 7.625ZM12 2.375H29.5V7.625H12V2.375ZM2.375 14.625V9.375H19.875V14.625H2.375ZM2.375 28.625V23.375H19.875V28.625H2.375ZM29.5 35.625H12V30.375H29.5V35.625ZM39.125 28.625H21.625V23.375H39.125V28.625ZM29.5 21.625H12V16.375H29.5V21.625ZM39.125 14.625H21.625V9.375H39.125V14.625Z" fill="white"/>
<path d="M3.25 35.625H1.5C1.26794 35.625 1.04538 35.7172 0.881282 35.8813C0.717187 36.0454 0.625 36.2679 0.625 36.5C0.625 36.7321 0.717187 36.9546 0.881282 37.1187C1.04538 37.2828 1.26794 37.375 1.5 37.375H3.25C3.48206 37.375 3.70462 37.2828 3.86872 37.1187C4.03281 36.9546 4.125 36.7321 4.125 36.5C4.125 36.2679 4.03281 36.0454 3.86872 35.8813C3.70462 35.7172 3.48206 35.625 3.25 35.625Z" fill="white"/>
<path d="M1.5 2.375H3.32C3.55206 2.375 3.77462 2.28281 3.93872 2.11872C4.10281 1.95462 4.195 1.73206 4.195 1.5C4.195 1.26794 4.10281 1.04538 3.93872 0.881282C3.77462 0.717187 3.55206 0.625 3.32 0.625H1.5C1.26794 0.625 1.04538 0.717187 0.881281 0.881282C0.717187 1.04538 0.625 1.26794 0.625 1.5C0.625 1.73206 0.717187 1.95462 0.881281 2.11872C1.04538 2.28281 1.26794 2.375 1.5 2.375Z" fill="white"/>
<path d="M50.5 9.375C50.7321 9.375 50.9546 9.28281 51.1187 9.11872C51.2828 8.95463 51.375 8.73206 51.375 8.5V1.5C51.375 1.26794 51.2828 1.04538 51.1187 0.881282C50.9546 0.717187 50.7321 0.625 50.5 0.625H42.625C42.3929 0.625 42.1704 0.717187 42.0063 0.881282C41.8422 1.04538 41.75 1.26794 41.75 1.5V8.5C41.75 8.73206 41.8422 8.95463 42.0063 9.11872C42.1704 9.28281 42.3929 9.375 42.625 9.375H47.875V14.625H42.625C42.3929 14.625 42.1704 14.7172 42.0063 14.8813C41.8422 15.0454 41.75 15.2679 41.75 15.5V22.5C41.75 22.7321 41.8422 22.9546 42.0063 23.1187C42.1704 23.2828 42.3929 23.375 42.625 23.375H47.875V28.625H42.625C42.3929 28.625 42.1704 28.7172 42.0063 28.8813C41.8422 29.0454 41.75 29.2679 41.75 29.5V36.5C41.75 36.7321 41.8422 36.9546 42.0063 37.1187C42.1704 37.2828 42.3929 37.375 42.625 37.375H50.5C50.7321 37.375 50.9546 37.2828 51.1187 37.1187C51.2828 36.9546 51.375 36.7321 51.375 36.5V29.5C51.375 29.2679 51.2828 29.0454 51.1187 28.8813C50.9546 28.7172 50.7321 28.625 50.5 28.625H49.625V23.375H50.5C50.7321 23.375 50.9546 23.2828 51.1187 23.1187C51.2828 22.9546 51.375 22.7321 51.375 22.5V15.5C51.375 15.2679 51.2828 15.0454 51.1187 14.8813C50.9546 14.7172 50.7321 14.625 50.5 14.625H49.625V9.375H50.5ZM49.625 35.625H43.5V30.375H49.625V35.625ZM48.75 21.625H43.5V16.375H49.625V21.625H48.75ZM43.5 2.375H49.625V7.625H43.5V2.375Z" fill="white"/>
</svg>
