<svg width="49" height="53" viewBox="0 0 49 53" fill="none" xmlns="http://www.w3.org/2000/svg">
<path d="M15.7661 26.3599L14.6248 34.5894C14.5828 34.8928 14.624 35.2019 14.744 35.4837C14.864 35.7655 15.0582 36.0095 15.3061 36.1895C15.5539 36.3695 15.8459 36.4788 16.151 36.5058C16.4561 36.5327 16.7629 36.4763 17.0384 36.3425L24.4882 32.7145L31.9625 36.3434C32.2381 36.4769 32.5449 36.533 32.8499 36.5058C33.155 36.4786 33.447 36.3691 33.6947 36.1889C33.9424 36.0088 34.1365 35.7647 34.2564 35.4829C34.3762 35.201 34.4173 34.8919 34.3753 34.5885L33.2272 26.3825L38.9868 20.3963C39.1992 20.1756 39.3476 19.9013 39.4163 19.6028C39.4849 19.3043 39.4712 18.9927 39.3766 18.7014C39.282 18.41 39.1101 18.1499 38.8791 17.9486C38.6482 17.7474 38.367 17.6127 38.0654 17.5588L29.9055 16.1153L25.9914 8.78719C25.8472 8.51694 25.6322 8.29095 25.3696 8.13338C25.1069 7.97581 24.8063 7.89258 24.5 7.89258C24.1937 7.89258 23.8931 7.97581 23.6305 8.13338C23.3678 8.29095 23.1528 8.51694 23.0086 8.78719L19.1138 16.1011L10.9346 17.5588C10.6331 17.6127 10.3518 17.7474 10.1209 17.9486C9.88993 18.1499 9.71798 18.41 9.62337 18.7014C9.52877 18.9927 9.51506 19.3043 9.58371 19.6028C9.65237 19.9013 9.8008 20.1756 10.0132 20.3963L15.7661 26.3599ZM19.4176 17.793C19.6693 17.7483 19.9074 17.6468 20.1141 17.4963C20.3207 17.3458 20.4903 17.1502 20.6101 16.9244L24.4748 9.59534L25.2335 9.19144L24.4757 9.59594L28.3899 16.9241C28.5098 17.1502 28.6798 17.3459 28.8868 17.4964C29.0938 17.647 29.3324 17.7483 29.5844 17.7927L37.7485 19.2043L31.9896 25.1906C31.8113 25.3745 31.6774 25.5968 31.5981 25.8404C31.5188 26.0841 31.4963 26.3426 31.5323 26.5963L32.7123 34.7964L25.2389 31.1684C25.009 31.0558 24.7564 30.9972 24.5003 30.9972C24.2443 30.9972 23.9917 31.0558 23.7618 31.1684L16.3271 34.825L17.4693 26.5938C17.5047 26.3405 17.4818 26.0825 17.4026 25.8394C17.3233 25.5962 17.1897 25.3744 17.0118 25.1906L11.2368 19.2505L19.4176 17.793Z" fill="white"/>
<path d="M45.3828 27.1865C45.7801 25.5551 45.982 23.8822 45.9844 22.2031C45.9844 16.5051 43.7208 11.0405 39.6917 7.01138C35.6626 2.98228 30.198 0.71875 24.5 0.71875C18.802 0.71875 13.3374 2.98228 9.30825 7.01138C5.27915 11.0405 3.01563 16.5051 3.01563 22.2031C3.01784 23.8821 3.21999 25.5549 3.61779 27.1861C1.95559 28.6556 0.864485 30.6639 0.536221 32.8581C0.207957 35.0523 0.663539 37.2919 1.8229 39.1835C2.98227 41.0751 4.77123 42.4976 6.87541 43.2009C8.97958 43.9042 11.2643 43.8434 13.3281 43.0292V51.4219C13.3281 51.5466 13.3553 51.6699 13.4078 51.7831C13.4603 51.8963 13.5368 51.9968 13.632 52.0774C13.7272 52.1581 13.8388 52.217 13.9591 52.2502C14.0794 52.2834 14.2054 52.29 14.3285 52.2695L24.5 50.5743L34.6715 52.2695C34.7181 52.2772 34.7652 52.2811 34.8125 52.2812C35.0404 52.2812 35.259 52.1907 35.4202 52.0295C35.5813 51.8684 35.6719 51.6498 35.6719 51.4219V43.0292C37.7354 43.8416 40.0191 43.9011 42.1222 43.1974C44.2252 42.4936 46.0131 41.0715 47.1721 39.1808C48.331 37.29 48.7869 35.0515 48.4597 32.8581C48.1325 30.6647 47.0431 28.6566 45.3828 27.1865ZM24.5 2.4375C29.7404 2.44332 34.7645 4.52764 38.47 8.23315C42.1755 11.9387 44.2598 16.9627 44.2656 22.2031C44.2672 23.9142 44.0428 25.618 43.5984 27.2704C42.4176 31.6983 39.7401 35.5808 36.0209 38.2582C35.4929 38.6382 34.9462 38.9915 34.3828 39.3168L34.3815 39.3177L34.3752 39.3218C33.9565 39.5694 33.5142 39.7918 33.1377 39.9764C30.4473 41.2873 27.4937 41.9686 24.5009 41.9687C21.508 41.9689 18.5544 41.2879 15.8638 39.9772C15.4861 39.7918 15.0439 39.5694 14.6177 39.3168C14.0528 38.9908 13.5045 38.6365 12.9752 38.2554C9.25653 35.5769 6.58009 31.6934 5.40073 27.2648C4.95661 25.6143 4.73255 23.9124 4.73437 22.2031C4.7402 16.9627 6.82451 11.9387 10.53 8.23315C14.2355 4.52764 19.2596 2.44332 24.5 2.4375ZM9.89062 41.9688C8.39527 41.9689 6.93192 41.5356 5.6778 40.7212C4.42368 39.9068 3.43257 38.7462 2.82451 37.3801C2.21644 36.0139 2.01749 34.5008 2.25175 33.0239C2.48601 31.547 3.14344 30.1697 4.14441 29.0588C4.1622 29.1118 4.18652 29.1619 4.20457 29.2151C4.38667 29.7423 4.58467 30.2635 4.80725 30.7733C4.82616 30.8168 4.84755 30.8593 4.8668 30.9022C5.09253 31.4102 5.33766 31.9084 5.60217 32.3969C5.62555 32.4398 5.64677 32.4843 5.67092 32.5274C5.94051 33.0172 6.23269 33.4946 6.53941 33.9621C6.58676 34.0345 6.63308 34.1073 6.68137 34.179C6.98708 34.6332 7.30978 35.0751 7.64946 35.5048C7.70437 35.5744 7.76006 35.6429 7.81592 35.7118C8.16594 36.1444 8.53032 36.5653 8.91283 36.97C8.95399 37.0136 8.99696 37.0553 9.03847 37.0989C9.84753 37.9408 10.7239 38.7153 11.6589 39.4147C11.7143 39.4563 11.7684 39.4992 11.8243 39.5402C12.2692 39.8662 12.7276 40.1742 13.1993 40.4641C13.2434 40.4914 13.2839 40.5238 13.3282 40.5508V41.1634C12.2596 41.6929 11.0832 41.9685 9.89062 41.9688ZM15.0469 41.6766V41.4902L15.107 41.5204C17.7701 42.8244 20.6774 43.5546 23.6406 43.6636V48.9752L15.0469 50.4072V41.6766ZM33.9531 50.4072L25.3594 48.9752V43.6636C28.3229 43.5546 31.2304 42.8242 33.8936 41.5197C33.9128 41.5105 33.933 41.5005 33.9531 41.4904V50.4072ZM39.1094 41.9688C37.9168 41.9683 36.7404 41.6926 35.6719 41.1631V40.5508C35.7141 40.525 35.7527 40.4942 35.7948 40.4681C36.266 40.1766 36.7248 39.8683 37.1713 39.5433C37.2315 39.4993 37.2893 39.4532 37.3489 39.4086C37.8119 39.0618 38.2637 38.7012 38.6961 38.3192L38.7033 38.3125C39.1376 37.9284 39.5522 37.5237 39.9536 37.1067C39.9989 37.0596 40.0457 37.0142 40.0906 36.9668C40.4713 36.5639 40.8337 36.145 41.182 35.7146C41.2387 35.6446 41.2954 35.575 41.3512 35.5043C41.6913 35.0734 42.0147 34.6305 42.3214 34.1756C42.3673 34.1074 42.4113 34.0381 42.4565 33.9693C42.7665 33.4967 43.0616 33.0154 43.3339 32.5197C43.3523 32.4864 43.3687 32.452 43.3869 32.4185C43.6608 31.9136 43.9144 31.398 44.1477 30.8716C44.1605 30.8427 44.1748 30.8146 44.1875 30.7857C44.4152 30.2647 44.6178 29.7326 44.8032 29.1938C44.8189 29.1481 44.84 29.1046 44.8554 29.0587C45.8564 30.1696 46.5138 31.5469 46.7481 33.0238C46.9824 34.5007 46.7835 36.0138 46.1754 37.38C45.5674 38.7461 44.5763 39.9067 43.3222 40.7211C42.0681 41.5356 40.6047 41.9689 39.1094 41.9688Z" fill="white"/>
</svg>
